<svg version="1.0" xmlns="http://www.w3.org/2000/svg" viewBox="0 0 512.000000 512.000000"
 preserveAspectRatio="xMidYMid meet" width="20" height="20">
 <g transform="translate(0.000000,512.000000) scale(0.100000,-0.100000)" fill="#000000"
  stroke="none">
  <path fill="currentColor"
   d="M2940 3389 c-100 -11 -257 -49 -352 -85 -179 -68 -323 -208 -388 -378 -39 -102 -52 -180 -51 -321 0 -165 24 -289 99 -530 34 -105 134 -335 147 -335 11 0 285 183 285 190 0 4 -16 33 -35 65 -51 86 -124 328 -125 418 l0 27 240 0 240 0 0 -250 0 -250 205 0 205 0 0 545 0 545 -199 0 c-172 0 -200 -2 -205 -16 -3 -9 -6 -78 -6 -154 0 -76 -3 -141 -7 -143 -5 -2 -109 -2 -232 1 l-223 5 5 43 c12 110 106 238 215 291 l57 28 323 3 c253 2 322 6 322 16 0 17 -78 278 -86 285 -10 10 -343 10 -434 0z" />
  <path fill="currentColor"
   d="M3730 2670 l0 -730 415 0 415 0 5 23 c29 114 63 273 59 276 -2 2 -122 4 -266 5 l-263 1 -3 571 -2 571 -98 6 c-53 4 -134 7 -179 7 l-83 0 0 -730z" />
  <path fill="currentColor"
   d="M480 2660 l0 -730 185 0 185 0 2 456 3 457 163 -201 c90 -111 169 -205 175 -209 6 -4 24 10 41 32 17 21 51 62 76 90 25 29 74 87 110 130 36 43 80 94 97 114 l33 36 0 -452 0 -453 180 0 180 0 0 730 0 730 -187 0 -188 0 -152 -193 c-84 -105 -163 -205 -175 -220 l-23 -28 -65 88 c-35 48 -109 148 -163 221 l-99 132 -189 0 -189 0 0 -730z" />
 </g>
</svg>
