<svg xmlns="http://www.w3.org/2000/svg" enable-background="new 0 0 24 24" viewBox="0 0 24 24"
  id="trakt">
  <path
    d="M12,24C5.383,24,0,18.617,0,12S5.383,0,12,0s12,5.383,12,12S18.617,24,12,24z M12,1.5C6.21,1.5,1.5,6.21,1.5,12S6.21,22.5,12,22.5S22.5,17.79,22.5,12S17.79,1.5,12,1.5z"></path>
  <path
    d="M4.383,14.003c-0.192,0-0.384-0.073-0.53-0.22c-0.293-0.293-0.293-0.768,0-1.061l10.36-10.36c0.293-0.293,0.768-0.293,1.061,0s0.293,0.768,0,1.061l-10.36,10.36C4.767,13.93,4.575,14.003,4.383,14.003z"></path>
  <path
    d="M19.95 20.7c-.192 0-.384-.073-.53-.22L8.64 9.7c-.293-.293-.293-.768 0-1.061s.768-.293 1.061 0l10.78 10.78c.293.293.293.768 0 1.061C20.334 20.627 20.143 20.7 19.95 20.7zM11.793 9.672c-.192 0-.384-.073-.53-.22-.293-.293-.293-.768 0-1.061l4.229-4.229c.293-.293.768-.293 1.061 0s.293.768 0 1.061l-4.229 4.229C12.177 9.599 11.985 9.672 11.793 9.672zM13.207 11.086c-.192 0-.384-.073-.53-.22-.293-.293-.293-.768 0-1.061l2.828-2.828c.293-.293.768-.293 1.061 0s.293.768 0 1.061l-2.828 2.828C13.591 11.013 13.399 11.086 13.207 11.086zM18.39 22.01c-.192 0-.384-.073-.53-.22l-8.938-8.938-3.71 3.718c-.292.295-.769.293-1.061.002-.294-.293-.294-.768-.002-1.061l4.24-4.25c.141-.142.332-.221.531-.221l0 0c.199 0 .39.079.53.22l9.47 9.47c.293.293.293.768 0 1.061C18.773 21.937 18.582 22.01 18.39 22.01z"></path>
  <path
    d="M16.55,23.04c-0.192,0-0.384-0.073-0.53-0.22l-7.099-7.099l-4.54,4.549c-0.292,0.292-0.768,0.293-1.062,0.001c-0.293-0.293-0.293-0.768-0.001-1.062l5.07-5.08c0.141-0.141,0.332-0.22,0.531-0.22l0,0c0.199,0,0.39,0.079,0.53,0.22l7.63,7.63c0.293,0.293,0.293,0.768,0,1.061C16.934,22.967,16.742,23.04,16.55,23.04z"></path>
</svg>
